<svg width="45" height="12" viewBox="0 0 45 12" fill="none" xmlns="http://www.w3.org/2000/svg">
<path d="M5.71209 11H3.22477V3.24739H1V1.06969H7.93686V3.24739H5.71209V11Z" fill="black"/>
<path d="M8.66341 1.06969H14.3981V3.16028H11.1507V4.97213H13.8868V6.85366H11.1507V8.87456H14.3843V11H8.66341V1.06969Z" fill="black"/>
<path d="M22.6246 11H20.0129L19.5431 8.49129C19.5246 8.39837 19.4924 8.24158 19.4463 8.02091C19.4095 7.78862 19.3634 7.62021 19.3082 7.51568C19.2529 7.39954 19.1746 7.32404 19.0732 7.2892C18.8153 7.30081 18.4376 7.30662 17.9401 7.30662V11H15.4528V1.15679C16.5675 1.05226 17.6085 1 18.5758 1C19.4509 1 20.1603 1.09292 20.7038 1.27875C21.2473 1.45296 21.6527 1.76074 21.9198 2.20209C22.1962 2.63182 22.3344 3.22416 22.3344 3.97909C22.3344 4.68757 22.2054 5.24506 21.9475 5.65157C21.6895 6.04646 21.275 6.28455 20.7038 6.36585V6.47038C21.0262 6.50523 21.2934 6.63879 21.5053 6.87108C21.7264 7.09175 21.8738 7.37631 21.9475 7.72474L22.6246 11ZM17.9401 5.33798C18.023 5.34959 18.1843 5.3554 18.4238 5.3554C19.1331 5.3554 19.5477 5.27991 19.6674 5.12892C19.778 4.98955 19.8333 4.66434 19.8333 4.15331C19.8333 3.67712 19.7319 3.35192 19.5293 3.1777C19.3358 3.00348 19.0134 2.91638 18.562 2.91638C18.4606 2.91638 18.2533 2.92799 17.9401 2.95122V5.33798Z" fill="black"/>
<path d="M30.6404 11H28.0287L27.5589 8.49129C27.5404 8.39837 27.5082 8.24158 27.4621 8.02091C27.4253 7.78862 27.3792 7.62021 27.3239 7.51568C27.2687 7.39954 27.1904 7.32404 27.089 7.2892C26.8311 7.30081 26.4534 7.30662 25.9559 7.30662V11H23.4686V1.15679C24.5833 1.05226 25.6243 1 26.5916 1C27.4667 1 28.1761 1.09292 28.7196 1.27875C29.2631 1.45296 29.6685 1.76074 29.9356 2.20209C30.212 2.63182 30.3502 3.22416 30.3502 3.97909C30.3502 4.68757 30.2212 5.24506 29.9633 5.65157C29.7053 6.04646 29.2908 6.28455 28.7196 6.36585V6.47038C29.042 6.50523 29.3092 6.63879 29.5211 6.87108C29.7422 7.09175 29.8896 7.37631 29.9633 7.72474L30.6404 11ZM25.9559 5.33798C26.0388 5.34959 26.2 5.3554 26.4396 5.3554C27.1489 5.3554 27.5635 5.27991 27.6832 5.12892C27.7938 4.98955 27.849 4.66434 27.849 4.15331C27.849 3.67712 27.7477 3.35192 27.545 3.1777C27.3516 3.00348 27.0291 2.91638 26.5777 2.91638C26.4764 2.91638 26.2691 2.92799 25.9559 2.95122V5.33798Z" fill="black"/>
<path d="M31.4153 1.06969H37.1499V3.16028H33.9026V4.97213H36.6387V6.85366H33.9026V8.87456H37.1361V11H31.4153V1.06969Z" fill="black"/>
<path d="M44 1.06969V11H41.5818V3.5784L39.8683 4.03136L39.6057 2.20209L42.0516 1.06969H44Z" fill="black"/>
<path d="M5.71209 11H3.22477V3.24739H1V1.06969H7.93686V3.24739H5.71209V11Z" stroke="white" stroke-width="0.5"/>
<path d="M8.66341 1.06969H14.3981V3.16028H11.1507V4.97213H13.8868V6.85366H11.1507V8.87456H14.3843V11H8.66341V1.06969Z" stroke="white" stroke-width="0.5"/>
<path d="M22.6246 11H20.0129L19.5431 8.49129C19.5246 8.39837 19.4924 8.24158 19.4463 8.02091C19.4095 7.78862 19.3634 7.62021 19.3082 7.51568C19.2529 7.39954 19.1746 7.32404 19.0732 7.2892C18.8153 7.30081 18.4376 7.30662 17.9401 7.30662V11H15.4528V1.15679C16.5675 1.05226 17.6085 1 18.5758 1C19.4509 1 20.1603 1.09292 20.7038 1.27875C21.2473 1.45296 21.6527 1.76074 21.9198 2.20209C22.1962 2.63182 22.3344 3.22416 22.3344 3.97909C22.3344 4.68757 22.2054 5.24506 21.9475 5.65157C21.6895 6.04646 21.275 6.28455 20.7038 6.36585V6.47038C21.0262 6.50523 21.2934 6.63879 21.5053 6.87108C21.7264 7.09175 21.8738 7.37631 21.9475 7.72474L22.6246 11ZM17.9401 5.33798C18.023 5.34959 18.1843 5.3554 18.4238 5.3554C19.1331 5.3554 19.5477 5.27991 19.6674 5.12892C19.778 4.98955 19.8333 4.66434 19.8333 4.15331C19.8333 3.67712 19.7319 3.35192 19.5293 3.1777C19.3358 3.00348 19.0134 2.91638 18.562 2.91638C18.4606 2.91638 18.2533 2.92799 17.9401 2.95122V5.33798Z" stroke="white" stroke-width="0.5"/>
<path d="M30.6404 11H28.0287L27.5589 8.49129C27.5404 8.39837 27.5082 8.24158 27.4621 8.02091C27.4253 7.78862 27.3792 7.62021 27.3239 7.51568C27.2687 7.39954 27.1904 7.32404 27.089 7.2892C26.8311 7.30081 26.4534 7.30662 25.9559 7.30662V11H23.4686V1.15679C24.5833 1.05226 25.6243 1 26.5916 1C27.4667 1 28.1761 1.09292 28.7196 1.27875C29.2631 1.45296 29.6685 1.76074 29.9356 2.20209C30.212 2.63182 30.3502 3.22416 30.3502 3.97909C30.3502 4.68757 30.2212 5.24506 29.9633 5.65157C29.7053 6.04646 29.2908 6.28455 28.7196 6.36585V6.47038C29.042 6.50523 29.3092 6.63879 29.5211 6.87108C29.7422 7.09175 29.8896 7.37631 29.9633 7.72474L30.6404 11ZM25.9559 5.33798C26.0388 5.34959 26.2 5.3554 26.4396 5.3554C27.1489 5.3554 27.5635 5.27991 27.6832 5.12892C27.7938 4.98955 27.849 4.66434 27.849 4.15331C27.849 3.67712 27.7477 3.35192 27.545 3.1777C27.3516 3.00348 27.0291 2.91638 26.5777 2.91638C26.4764 2.91638 26.2691 2.92799 25.9559 2.95122V5.33798Z" stroke="white" stroke-width="0.5"/>
<path d="M31.4153 1.06969H37.1499V3.16028H33.9026V4.97213H36.6387V6.85366H33.9026V8.87456H37.1361V11H31.4153V1.06969Z" stroke="white" stroke-width="0.5"/>
<path d="M44 1.06969V11H41.5818V3.5784L39.8683 4.03136L39.6057 2.20209L42.0516 1.06969H44Z" stroke="white" stroke-width="0.5"/>
</svg>
