<svg width="45" height="30" viewBox="0 0 45 30" fill="none" xmlns="http://www.w3.org/2000/svg">
<circle cx="22" cy="15" r="12.5" stroke="black"/>
<circle cx="22" cy="15" r="14.25" stroke="black" stroke-width="0.5"/>
<path d="M35.35 15C35.35 22.373 29.373 28.35 22 28.35C14.627 28.35 8.65 22.373 8.65 15C8.65 7.627 14.627 1.65 22 1.65C29.373 1.65 35.35 7.627 35.35 15Z" stroke="white" stroke-width="1.3"/>
<path d="M33.75 25.5C33.75 27.8472 31.8472 29.75 29.5 29.75C27.1528 29.75 25.25 27.8472 25.25 25.5C25.25 23.1528 27.1528 21.25 29.5 21.25C31.8472 21.25 33.75 23.1528 33.75 25.5Z" fill="white" stroke="black" stroke-width="0.5"/>
<path d="M5.71209 20H3.22477V12.2474H1V10.0697H7.93686V12.2474H5.71209V20Z" fill="black"/>
<path d="M8.66341 10.0697H14.3981V12.1603H11.1507V13.9721H13.8868V15.8537H11.1507V17.8746H14.3843V20H8.66341V10.0697Z" fill="black"/>
<path d="M22.6246 20H20.0129L19.5431 17.4913C19.5246 17.3984 19.4924 17.2416 19.4463 17.0209C19.4095 16.7886 19.3634 16.6202 19.3082 16.5157C19.2529 16.3995 19.1746 16.324 19.0732 16.2892C18.8153 16.3008 18.4376 16.3066 17.9401 16.3066V20H15.4528V10.1568C16.5675 10.0523 17.6085 10 18.5758 10C19.4509 10 20.1603 10.0929 20.7038 10.2787C21.2473 10.453 21.6527 10.7607 21.9198 11.2021C22.1962 11.6318 22.3344 12.2242 22.3344 12.9791C22.3344 13.6876 22.2054 14.2451 21.9475 14.6516C21.6895 15.0465 21.275 15.2846 20.7038 15.3659V15.4704C21.0262 15.5052 21.2934 15.6388 21.5053 15.8711C21.7264 16.0918 21.8738 16.3763 21.9475 16.7247L22.6246 20ZM17.9401 14.338C18.023 14.3496 18.1843 14.3554 18.4238 14.3554C19.1331 14.3554 19.5477 14.2799 19.6674 14.1289C19.778 13.9895 19.8333 13.6643 19.8333 13.1533C19.8333 12.6771 19.7319 12.3519 19.5293 12.1777C19.3358 12.0035 19.0134 11.9164 18.562 11.9164C18.4606 11.9164 18.2533 11.928 17.9401 11.9512V14.338Z" fill="black"/>
<path d="M30.6404 20H28.0287L27.5589 17.4913C27.5404 17.3984 27.5082 17.2416 27.4621 17.0209C27.4253 16.7886 27.3792 16.6202 27.3239 16.5157C27.2687 16.3995 27.1904 16.324 27.089 16.2892C26.8311 16.3008 26.4534 16.3066 25.9559 16.3066V20H23.4686V10.1568C24.5833 10.0523 25.6243 10 26.5916 10C27.4667 10 28.1761 10.0929 28.7196 10.2787C29.2631 10.453 29.6685 10.7607 29.9356 11.2021C30.212 11.6318 30.3502 12.2242 30.3502 12.9791C30.3502 13.6876 30.2212 14.2451 29.9633 14.6516C29.7053 15.0465 29.2908 15.2846 28.7196 15.3659V15.4704C29.042 15.5052 29.3092 15.6388 29.5211 15.8711C29.7422 16.0918 29.8896 16.3763 29.9633 16.7247L30.6404 20ZM25.9559 14.338C26.0388 14.3496 26.2 14.3554 26.4396 14.3554C27.1489 14.3554 27.5635 14.2799 27.6832 14.1289C27.7938 13.9895 27.849 13.6643 27.849 13.1533C27.849 12.6771 27.7477 12.3519 27.545 12.1777C27.3516 12.0035 27.0291 11.9164 26.5777 11.9164C26.4764 11.9164 26.2691 11.928 25.9559 11.9512V14.338Z" fill="black"/>
<path d="M31.4153 10.0697H37.1499V12.1603H33.9026V13.9721H36.6387V15.8537H33.9026V17.8746H37.1361V20H31.4153V10.0697Z" fill="black"/>
<path d="M44 10.0697V20H41.5818V12.5784L39.8683 13.0314L39.6057 11.2021L42.0516 10.0697H44Z" fill="black"/>
<path d="M5.71209 20H3.22477V12.2474H1V10.0697H7.93686V12.2474H5.71209V20Z" stroke="white" stroke-width="0.5"/>
<path d="M8.66341 10.0697H14.3981V12.1603H11.1507V13.9721H13.8868V15.8537H11.1507V17.8746H14.3843V20H8.66341V10.0697Z" stroke="white" stroke-width="0.5"/>
<path d="M22.6246 20H20.0129L19.5431 17.4913C19.5246 17.3984 19.4924 17.2416 19.4463 17.0209C19.4095 16.7886 19.3634 16.6202 19.3082 16.5157C19.2529 16.3995 19.1746 16.324 19.0732 16.2892C18.8153 16.3008 18.4376 16.3066 17.9401 16.3066V20H15.4528V10.1568C16.5675 10.0523 17.6085 10 18.5758 10C19.4509 10 20.1603 10.0929 20.7038 10.2787C21.2473 10.453 21.6527 10.7607 21.9198 11.2021C22.1962 11.6318 22.3344 12.2242 22.3344 12.9791C22.3344 13.6876 22.2054 14.2451 21.9475 14.6516C21.6895 15.0465 21.275 15.2846 20.7038 15.3659V15.4704C21.0262 15.5052 21.2934 15.6388 21.5053 15.8711C21.7264 16.0918 21.8738 16.3763 21.9475 16.7247L22.6246 20ZM17.9401 14.338C18.023 14.3496 18.1843 14.3554 18.4238 14.3554C19.1331 14.3554 19.5477 14.2799 19.6674 14.1289C19.778 13.9895 19.8333 13.6643 19.8333 13.1533C19.8333 12.6771 19.7319 12.3519 19.5293 12.1777C19.3358 12.0035 19.0134 11.9164 18.562 11.9164C18.4606 11.9164 18.2533 11.928 17.9401 11.9512V14.338Z" stroke="white" stroke-width="0.5"/>
<path d="M30.6404 20H28.0287L27.5589 17.4913C27.5404 17.3984 27.5082 17.2416 27.4621 17.0209C27.4253 16.7886 27.3792 16.6202 27.3239 16.5157C27.2687 16.3995 27.1904 16.324 27.089 16.2892C26.8311 16.3008 26.4534 16.3066 25.9559 16.3066V20H23.4686V10.1568C24.5833 10.0523 25.6243 10 26.5916 10C27.4667 10 28.1761 10.0929 28.7196 10.2787C29.2631 10.453 29.6685 10.7607 29.9356 11.2021C30.212 11.6318 30.3502 12.2242 30.3502 12.9791C30.3502 13.6876 30.2212 14.2451 29.9633 14.6516C29.7053 15.0465 29.2908 15.2846 28.7196 15.3659V15.4704C29.042 15.5052 29.3092 15.6388 29.5211 15.8711C29.7422 16.0918 29.8896 16.3763 29.9633 16.7247L30.6404 20ZM25.9559 14.338C26.0388 14.3496 26.2 14.3554 26.4396 14.3554C27.1489 14.3554 27.5635 14.2799 27.6832 14.1289C27.7938 13.9895 27.849 13.6643 27.849 13.1533C27.849 12.6771 27.7477 12.3519 27.545 12.1777C27.3516 12.0035 27.0291 11.9164 26.5777 11.9164C26.4764 11.9164 26.2691 11.928 25.9559 11.9512V14.338Z" stroke="white" stroke-width="0.5"/>
<path d="M31.4153 10.0697H37.1499V12.1603H33.9026V13.9721H36.6387V15.8537H33.9026V17.8746H37.1361V20H31.4153V10.0697Z" stroke="white" stroke-width="0.5"/>
<path d="M44 10.0697V20H41.5818V12.5784L39.8683 13.0314L39.6057 11.2021L42.0516 10.0697H44Z" stroke="white" stroke-width="0.5"/>
<path d="M17.75 4C17.75 5.51878 16.5188 6.75 15 6.75C13.4812 6.75 12.25 5.51878 12.25 4C12.25 2.48122 13.4812 1.25 15 1.25C16.5188 1.25 17.75 2.48122 17.75 4Z" fill="white" stroke="black" stroke-width="0.5"/>
</svg>
